<svg aria-hidden="true" style="position: absolute; width: 0; height: 0; overflow: hidden;" version="1.1" xmlns="http://www.w3.org/2000/svg" xmlns:xlink="http://www.w3.org/1999/xlink">
<defs>
<symbol id="icon-pinterest" viewBox="0 0 32 32">
<title>pinterest</title>
<path d="M16 0c-8.825 0-16 7.175-16 16s7.175 16 16 16 16-7.175 16-16-7.175-16-16-16zM16 29.863c-1.431 0-2.806-0.219-4.106-0.619 0.563-0.919 1.412-2.431 1.725-3.631 0.169-0.65 0.863-3.294 0.863-3.294 0.45 0.863 1.775 1.594 3.175 1.594 4.181 0 7.194-3.844 7.194-8.625 0-4.581-3.738-8.006-8.544-8.006-5.981 0-9.156 4.019-9.156 8.387 0 2.031 1.081 4.563 2.813 5.369 0.262 0.125 0.4 0.069 0.463-0.188 0.044-0.194 0.281-1.131 0.387-1.575 0.031-0.137 0.019-0.262-0.094-0.4-0.575-0.694-1.031-1.975-1.031-3.162 0-3.056 2.313-6.019 6.256-6.019 3.406 0 5.788 2.319 5.788 5.637 0 3.75-1.894 6.35-4.356 6.35-1.363 0-2.381-1.125-2.050-2.506 0.394-1.65 1.15-3.425 1.15-4.613 0-1.063-0.569-1.95-1.756-1.95-1.394 0-2.506 1.438-2.506 3.369 0 1.225 0.412 2.056 0.412 2.056s-1.375 5.806-1.625 6.887c-0.281 1.2-0.169 2.881-0.050 3.975-5.156-2.012-8.813-7.025-8.813-12.9 0-7.656 6.206-13.863 13.862-13.863s13.863 6.206 13.863 13.863c0 7.656-6.206 13.863-13.863 13.863z"></path>
</symbol>
<symbol id="icon-twitter" viewBox="0 0 32 32">
<title>twitter</title>
<path d="M32 7.075c-1.175 0.525-2.444 0.875-3.769 1.031 1.356-0.813 2.394-2.1 2.887-3.631-1.269 0.75-2.675 1.3-4.169 1.594-1.2-1.275-2.906-2.069-4.794-2.069-3.625 0-6.563 2.938-6.563 6.563 0 0.512 0.056 1.012 0.169 1.494-5.456-0.275-10.294-2.888-13.531-6.862-0.563 0.969-0.887 2.1-0.887 3.3 0 2.275 1.156 4.287 2.919 5.463-1.075-0.031-2.087-0.331-2.975-0.819 0 0.025 0 0.056 0 0.081 0 3.181 2.263 5.838 5.269 6.437-0.55 0.15-1.131 0.231-1.731 0.231-0.425 0-0.831-0.044-1.237-0.119 0.838 2.606 3.263 4.506 6.131 4.563-2.25 1.762-5.075 2.813-8.156 2.813-0.531 0-1.050-0.031-1.569-0.094 2.913 1.869 6.362 2.95 10.069 2.95 12.075 0 18.681-10.006 18.681-18.681 0-0.287-0.006-0.569-0.019-0.85 1.281-0.919 2.394-2.075 3.275-3.394z"></path>
</symbol>
<symbol id="icon-leaf" viewBox="0 0 32 32">
<title>leaf</title>
<path d="M31.604 4.203c-3.461-2.623-8.787-4.189-14.247-4.189-6.754 0-12.257 2.358-15.099 6.469-1.335 1.931-2.073 4.217-2.194 6.796-0.108 2.296 0.278 4.835 1.146 7.567 2.965-8.887 11.244-15.847 20.79-15.847 0 0-8.932 2.351-14.548 9.631-0.003 0.004-0.078 0.097-0.207 0.272-1.128 1.509-2.111 3.224-2.846 5.166-1.246 2.963-2.4 7.030-2.4 11.931h4c0 0-0.607-3.819 0.449-8.212 1.747 0.236 3.308 0.353 4.714 0.353 3.677 0 6.293-0.796 8.231-2.504 1.736-1.531 2.694-3.587 3.707-5.764 1.548-3.325 3.302-7.094 8.395-10.005 0.292-0.167 0.48-0.468 0.502-0.804s-0.126-0.659-0.394-0.862z"></path>
</symbol>
<symbol id="icon-infinite" viewBox="0 0 32 32">
<title>infinite</title>
<path d="M24.5 23.5c-2.003 0-3.887-0.78-5.303-2.197l-3.197-3.196-3.196 3.196c-1.417 1.417-3.3 2.197-5.303 2.197s-3.887-0.78-5.304-2.197c-1.417-1.417-2.197-3.3-2.197-5.303s0.78-3.887 2.197-5.304c1.417-1.417 3.3-2.197 5.304-2.197s3.887 0.78 5.303 2.197l3.196 3.196 3.196-3.196c1.417-1.417 3.3-2.197 5.303-2.197s3.887 0.78 5.303 2.197c1.417 1.417 2.197 3.3 2.197 5.304s-0.78 3.887-2.197 5.303c-1.416 1.417-3.3 2.197-5.303 2.197zM21.304 19.197c0.854 0.853 1.989 1.324 3.196 1.323s2.342-0.47 3.196-1.324c0.854-0.854 1.324-1.989 1.324-3.196s-0.47-2.342-1.324-3.196c-0.854-0.854-1.989-1.324-3.196-1.324s-2.342 0.47-3.196 1.324l-3.196 3.196 3.196 3.197zM7.5 11.48c-1.207 0-2.342 0.47-3.196 1.324s-1.324 1.989-1.324 3.196c0 1.207 0.47 2.342 1.324 3.196s1.989 1.324 3.196 1.324c1.207 0 2.342-0.47 3.196-1.324l3.196-3.196-3.196-3.196c-0.854-0.854-1.989-1.324-3.196-1.324v0z"></path>
</symbol>
<symbol id="icon-map" viewBox="0 0 32 32">
<title>map</title>
<path d="M0 6l10-4v24l-10 4z"></path>
<path d="M12 1l10 6v23l-10-5z"></path>
<path d="M24 7l8-6v24l-8 6z"></path>
</symbol>
<symbol id="icon-truck" viewBox="0 0 32 32">
<title>truck</title>
<path d="M32 18l-4-8h-6v-4c0-1.1-0.9-2-2-2h-18c-1.1 0-2 0.9-2 2v16l2 2h2.536c-0.341 0.588-0.536 1.271-0.536 2 0 2.209 1.791 4 4 4s4-1.791 4-4c0-0.729-0.196-1.412-0.536-2h11.073c-0.341 0.588-0.537 1.271-0.537 2 0 2.209 1.791 4 4 4s4-1.791 4-4c0-0.729-0.196-1.412-0.537-2h2.537v-6zM22 18v-6h4.146l3 6h-7.146z"></path>
</symbol>
<symbol id="icon-instagram" viewBox="0 0 24 24">
<title>instagram</title>
<path d="M7 1c-1.657 0-3.158 0.673-4.243 1.757s-1.757 2.586-1.757 4.243v10c0 1.657 0.673 3.158 1.757 4.243s2.586 1.757 4.243 1.757h10c1.657 0 3.158-0.673 4.243-1.757s1.757-2.586 1.757-4.243v-10c0-1.657-0.673-3.158-1.757-4.243s-2.586-1.757-4.243-1.757zM7 3h10c1.105 0 2.103 0.447 2.828 1.172s1.172 1.723 1.172 2.828v10c0 1.105-0.447 2.103-1.172 2.828s-1.723 1.172-2.828 1.172h-10c-1.105 0-2.103-0.447-2.828-1.172s-1.172-1.723-1.172-2.828v-10c0-1.105 0.447-2.103 1.172-2.828s1.723-1.172 2.828-1.172zM16.989 11.223c-0.15-0.972-0.571-1.857-1.194-2.567-0.754-0.861-1.804-1.465-3.009-1.644-0.464-0.074-0.97-0.077-1.477-0.002-1.366 0.202-2.521 0.941-3.282 1.967s-1.133 2.347-0.93 3.712 0.941 2.521 1.967 3.282 2.347 1.133 3.712 0.93 2.521-0.941 3.282-1.967 1.133-2.347 0.93-3.712zM15.011 11.517c0.122 0.82-0.1 1.609-0.558 2.227s-1.15 1.059-1.969 1.18-1.609-0.1-2.227-0.558-1.059-1.15-1.18-1.969 0.1-1.609 0.558-2.227 1.15-1.059 1.969-1.18c0.313-0.046 0.615-0.042 0.87-0.002 0.74 0.11 1.366 0.47 1.818 0.986 0.375 0.428 0.63 0.963 0.72 1.543zM18.5 6.5c0-0.552-0.448-1-1-1s-1 0.448-1 1 0.448 1 1 1 1-0.448 1-1z"></path>
</symbol>
<symbol id="icon-x-circle" viewBox="0 0 24 24">
<title>x-circle</title>
<path d="M23 12c0-3.037-1.232-5.789-3.222-7.778s-4.741-3.222-7.778-3.222-5.789 1.232-7.778 3.222-3.222 4.741-3.222 7.778 1.232 5.789 3.222 7.778 4.741 3.222 7.778 3.222 5.789-1.232 7.778-3.222 3.222-4.741 3.222-7.778zM21 12c0 2.486-1.006 4.734-2.636 6.364s-3.878 2.636-6.364 2.636-4.734-1.006-6.364-2.636-2.636-3.878-2.636-6.364 1.006-4.734 2.636-6.364 3.878-2.636 6.364-2.636 4.734 1.006 6.364 2.636 2.636 3.878 2.636 6.364zM8.293 9.707l2.293 2.293-2.293 2.293c-0.391 0.391-0.391 1.024 0 1.414s1.024 0.391 1.414 0l2.293-2.293 2.293 2.293c0.391 0.391 1.024 0.391 1.414 0s0.391-1.024 0-1.414l-2.293-2.293 2.293-2.293c0.391-0.391 0.391-1.024 0-1.414s-1.024-0.391-1.414 0l-2.293 2.293-2.293-2.293c-0.391-0.391-1.024-0.391-1.414 0s-0.391 1.024 0 1.414z"></path>
</symbol>
<symbol id="icon-youtube" viewBox="0 0 24 24">
<title>youtube</title>
<path d="M21.563 6.637c0.287 1.529 0.448 3.295 0.437 5.125 0.019 1.528-0.123 3.267-0.437 5.021-0.057 0.208-0.15 0.403-0.272 0.575-0.227 0.321-0.558 0.565-0.949 0.675-0.604 0.161-2.156 0.275-3.877 0.341-2.23 0.086-4.465 0.086-4.465 0.086s-2.235 0-4.465-0.085c-1.721-0.066-3.273-0.179-3.866-0.338-0.205-0.057-0.396-0.148-0.566-0.268-0.311-0.22-0.551-0.536-0.67-0.923-0.285-1.526-0.444-3.286-0.433-5.11-0.021-1.54 0.121-3.292 0.437-5.060 0.057-0.208 0.15-0.403 0.272-0.575 0.227-0.321 0.558-0.565 0.949-0.675 0.604-0.161 2.156-0.275 3.877-0.341 2.23-0.085 4.465-0.085 4.465-0.085s2.235 0 4.466 0.078c1.719 0.060 3.282 0.163 3.856 0.303 0.219 0.063 0.421 0.165 0.598 0.299 0.307 0.232 0.538 0.561 0.643 0.958zM23.51 6.177c-0.217-0.866-0.718-1.59-1.383-2.093-0.373-0.282-0.796-0.494-1.249-0.625-0.898-0.22-2.696-0.323-4.342-0.38-2.267-0.079-4.536-0.079-4.536-0.079s-2.272 0-4.541 0.087c-1.642 0.063-3.45 0.175-4.317 0.407-0.874 0.247-1.581 0.77-2.064 1.45-0.27 0.381-0.469 0.811-0.587 1.268-0.006 0.024-0.011 0.049-0.015 0.071-0.343 1.898-0.499 3.793-0.476 5.481-0.012 1.924 0.161 3.831 0.477 5.502 0.006 0.031 0.013 0.062 0.021 0.088 0.245 0.86 0.77 1.567 1.451 2.048 0.357 0.252 0.757 0.442 1.181 0.561 0.879 0.235 2.686 0.347 4.328 0.41 2.27 0.087 4.542 0.087 4.542 0.087s2.272 0 4.541-0.087c1.642-0.063 3.449-0.175 4.317-0.407 0.873-0.247 1.581-0.77 2.063-1.45 0.27-0.381 0.47-0.811 0.587-1.267 0.006-0.025 0.012-0.050 0.015-0.071 0.34-1.884 0.496-3.765 0.476-5.44 0.012-1.925-0.161-3.833-0.477-5.504-0.004-0.020-0.008-0.040-0.012-0.057zM10.75 13.301v-3.102l2.727 1.551zM10.244 15.889l5.75-3.27c0.48-0.273 0.648-0.884 0.375-1.364-0.093-0.164-0.226-0.292-0.375-0.375l-5.75-3.27c-0.48-0.273-1.091-0.105-1.364 0.375-0.090 0.158-0.132 0.33-0.131 0.494v6.54c0 0.552 0.448 1 1 1 0.182 0 0.352-0.049 0.494-0.131z"></path>
</symbol>
<symbol id="icon-format_list_numbered" viewBox="0 0 24 24">
<title>format_list_numbered</title>
<path d="M6.984 12.984v-1.969h14.016v1.969h-14.016zM6.984 18.984v-1.969h14.016v1.969h-14.016zM6.984 5.016h14.016v1.969h-14.016v-1.969zM2.016 11.016v-1.031h3v0.938l-1.828 2.063h1.828v1.031h-3v-0.938l1.781-2.063h-1.781zM3 8.016v-3h-0.984v-1.031h1.969v4.031h-0.984zM2.016 17.016v-1.031h3v4.031h-3v-1.031h1.969v-0.469h-0.984v-1.031h0.984v-0.469h-1.969z"></path>
</symbol>
<symbol id="icon-collectionsphoto_library" viewBox="0 0 24 24">
<title>collectionsphoto_library</title>
<path d="M2.016 6h1.969v14.016h14.016v1.969h-14.016q-0.797 0-1.383-0.586t-0.586-1.383v-14.016zM11.016 12l-3 3.984h12l-4.031-4.969-2.953 3.703zM21.984 15.984q0 0.797-0.586 1.406t-1.383 0.609h-12q-0.797 0-1.406-0.609t-0.609-1.406v-12q0-0.797 0.609-1.383t1.406-0.586h12q0.797 0 1.383 0.586t0.586 1.383v12z"></path>
</symbol>
<symbol id="icon-timer" viewBox="0 0 24 24">
<title>timer</title>
<path d="M12 20.016q2.906 0 4.945-2.063t2.039-4.969-2.039-4.945-4.945-2.039-4.945 2.039-2.039 4.945 2.039 4.969 4.945 2.063zM19.031 7.406q0.797 1.031 1.383 2.648t0.586 2.93q0 3.703-2.625 6.352t-6.375 2.648-6.375-2.648-2.625-6.352 2.625-6.352 6.375-2.648q1.266 0 2.93 0.609t2.695 1.406l1.406-1.453q0.75 0.609 1.406 1.406zM11.016 14.016v-6h1.969v6h-1.969zM15 0.984v2.016h-6v-2.016h6z"></path>
</symbol>
<symbol id="icon-local_grocery_storeshopping_cart" viewBox="0 0 24 24">
<title>local_grocery_storeshopping_cart</title>
<path d="M17.016 18q0.797 0 1.383 0.609t0.586 1.406-0.586 1.383-1.383 0.586-1.406-0.586-0.609-1.383 0.609-1.406 1.406-0.609zM0.984 2.016h3.281l0.938 1.969h14.813q0.422 0 0.703 0.305t0.281 0.727q0 0.047-0.141 0.469l-3.563 6.469q-0.563 1.031-1.734 1.031h-7.453l-0.891 1.641-0.047 0.141q0 0.234 0.234 0.234h11.578v2.016h-12q-0.797 0-1.383-0.609t-0.586-1.406q0-0.469 0.234-0.938l1.359-2.484-3.609-7.594h-2.016v-1.969zM6.984 18q0.797 0 1.406 0.609t0.609 1.406-0.609 1.383-1.406 0.586-1.383-0.586-0.586-1.383 0.586-1.406 1.383-0.609z"></path>
</symbol>
<symbol id="icon-person" viewBox="0 0 24 24">
<title>person</title>
<path d="M12 14.016q2.531 0 5.273 1.102t2.742 2.883v2.016h-16.031v-2.016q0-1.781 2.742-2.883t5.273-1.102zM12 12q-1.641 0-2.813-1.172t-1.172-2.813 1.172-2.836 2.813-1.195 2.813 1.195 1.172 2.836-1.172 2.813-2.813 1.172z"></path>
</symbol>
<symbol id="icon-person_add" viewBox="0 0 24 24">
<title>person_add</title>
<path d="M15 14.016q2.531 0 5.273 1.102t2.742 2.883v2.016h-16.031v-2.016q0-1.781 2.742-2.883t5.273-1.102zM6 9.984h3v2.016h-3v3h-2.016v-3h-3v-2.016h3v-3h2.016v3zM15 12q-1.641 0-2.813-1.172t-1.172-2.813 1.172-2.836 2.813-1.195 2.813 1.195 1.172 2.836-1.172 2.813-2.813 1.172z"></path>
</symbol>
<symbol id="icon-stargrade" viewBox="0 0 24 24">
<title>stargrade</title>
<path d="M12 17.25l-6.188 3.75 1.641-7.031-5.438-4.734 7.172-0.609 2.813-6.609 2.813 6.609 7.172 0.609-5.438 4.734 1.641 7.031z"></path>
</symbol>
<symbol id="icon-home" viewBox="0 0 24 24">
<title>home</title>
<path d="M9.984 20.016h-4.969v-8.016h-3l9.984-9 9.984 9h-3v8.016h-4.969v-6h-4.031v6z"></path>
</symbol>
<symbol id="icon-check_circle_outline" viewBox="0 0 24 24">
<title>check_circle_outline</title>
<path d="M12 20.016q3.281 0 5.648-2.367t2.367-5.648-2.367-5.648-5.648-2.367-5.648 2.367-2.367 5.648 2.367 5.648 5.648 2.367zM12 2.016q4.125 0 7.055 2.93t2.93 7.055-2.93 7.055-7.055 2.93-7.055-2.93-2.93-7.055 2.93-7.055 7.055-2.93zM16.594 7.594l1.406 1.406-8.016 8.016-4.969-5.016 1.406-1.406 3.563 3.563z"></path>
</symbol>
<symbol id="icon-facebook" viewBox="0 0 32 32">
<title>facebook</title>
<path d="M16-0.034c-8.841 0-16.035 7.192-16.035 16.034s7.194 16.034 16.035 16.034 16.035-7.192 16.035-16.034-7.194-16.034-16.035-16.034zM16 30.966c-8.252 0-14.965-6.714-14.965-14.966s6.713-14.966 14.965-14.966 14.965 6.714 14.965 14.966-6.713 14.966-14.965 14.966zM19.5 7h-2.668c-3.398-0.034-3.832 2.069-3.832 4.345v1.655h-1.5c-0.295-0.034-0.535 0.205-0.5 0.5v3c-0.035 0.295 0.205 0.534 0.5 0.5h1.5v7.5c-0.031 0.295 0.208 0.534 0.503 0.5h3.055c0.295 0.034 0.534-0.205 0.44-0.5l0.002-7.5h2.5c0.295 0.034 0.535-0.205 0.5-0.5v-3c0.035-0.295-0.205-0.534-0.5-0.5h-2.503l0.003-1.5c0.097-0.639 0.097-0.535 0.69-0.5h1.789c0.139-0.031 0.287-0.014 0.391-0.115s0.164-0.239 0.129-0.385v-3c0.036-0.295-0.204-0.534-0.499-0.5zM18.965 9.944l-1.254-0.048c-1.553 0-1.683 0.843-1.683 1.706l-0.004 1.896c0 0.142 0.056 0.278 0.156 0.379s0.236 0.156 0.378 0.156h2.442v1.932h-2.44c-0.295 0-0.534 0.239-0.535 0.534l-0.001 7.501h-2.024v-7.5c0-0.295-0.201-0.534-0.497-0.534h-1.503v-1.932h1.503c0.142 0 0.278-0.056 0.378-0.156s0.118-0.237 0.118-0.379v-2.155c0-2.242 0.453-3.31 2.832-3.31h2.133v1.91z"></path>
</symbol>
<symbol id="icon-twitter1" viewBox="0 0 32 32">
<title>twitter1</title>
<path d="M16-0.034c-8.841 0-16.035 7.192-16.035 16.034s7.194 16.034 16.035 16.034 16.035-7.192 16.035-16.034-7.194-16.034-16.035-16.034zM16 30.966c-8.252 0-14.965-6.714-14.965-14.966s6.713-14.966 14.965-14.966 14.965 6.714 14.965 14.966-6.713 14.966-14.965 14.966zM24.794 11.046c0.11-0.204 0.202-0.419 0.273-0.643 0.067-0.212-0.002-0.442-0.176-0.581-0.173-0.138-0.415-0.154-0.605-0.042-0.513 0.305-1.065 0.53-1.646 0.673-0.698-0.631-1.615-0.987-2.562-0.987-2.105 0-3.817 1.712-3.817 3.815 0 0.053 0.001 0.105 0.003 0.158-2.235-0.279-4.298-1.415-5.735-3.178-0.11-0.136-0.28-0.207-0.456-0.195-0.175 0.014-0.332 0.112-0.42 0.265-0.338 0.58-0.517 1.243-0.517 1.919 0 0.64 0.159 1.256 0.451 1.802-0.074 0.012-0.147 0.039-0.214 0.078-0.163 0.097-0.264 0.292-0.264 0.481 0 1.135 0.505 2.177 1.319 2.885-0.012 0.011-0.023 0.023-0.035 0.035-0.125 0.142-0.166 0.338-0.108 0.518 0.351 1.094 1.164 1.946 2.184 2.365-1.041 0.515-2.25 0.716-3.406 0.579-0.244-0.022-0.481 0.116-0.566 0.352-0.083 0.234 0.005 0.495 0.215 0.63 1.592 1.020 3.431 1.559 5.319 1.559 6.18 0 9.874-5.020 9.874-9.873 0-0.055 0-0.109-0.001-0.164 0.597-0.466 1.115-1.023 1.541-1.66 0.132-0.197 0.118-0.459-0.035-0.641-0.151-0.179-0.4-0.241-0.616-0.15zM23.049 12.801c-0.147 0.106-0.231 0.279-0.222 0.461 0.006 0.132 0.009 0.266 0.009 0.398 0 4.328-3.293 8.805-8.804 8.805-0.989 0-1.964-0.166-2.887-0.488 1.105-0.211 2.141-0.682 3.045-1.39 0.178-0.14 0.249-0.376 0.177-0.591-0.072-0.214-0.271-0.36-0.497-0.364-0.891-0.018-1.699-0.461-2.194-1.162 0.253-0.017 0.501-0.059 0.742-0.124 0.239-0.065 0.401-0.286 0.393-0.534s-0.186-0.457-0.429-0.506c-1.003-0.201-1.79-0.943-2.081-1.905 0.266 0.067 0.539 0.106 0.812 0.115 0.235-0.001 0.453-0.145 0.526-0.371s-0.013-0.475-0.212-0.607c-0.765-0.512-1.222-1.366-1.222-2.287 0-0.223 0.027-0.443 0.079-0.658 1.731 1.775 4.080 2.847 6.568 2.972 0.176 0.001 0.33-0.062 0.437-0.191s0.148-0.3 0.11-0.464c-0.047-0.203-0.071-0.414-0.071-0.627 0-1.515 1.233-2.747 2.748-2.747 0.757 0 1.488 0.316 2.005 0.868 0.126 0.135 0.312 0.194 0.494 0.159 0.165-0.033 0.328-0.071 0.489-0.115-0.072 0.054-0.147 0.104-0.226 0.151-0.216 0.129-0.312 0.393-0.231 0.631s0.324 0.394 0.569 0.357c0.061-0.007 0.121-0.015 0.182-0.023-0.099 0.082-0.203 0.161-0.309 0.237z"></path>
</symbol>
</defs>
</svg>
